<mxfile host="app.diagrams.net" modified="2021-03-08T09:02:21.338Z" agent="5.0 (Macintosh; Intel Mac OS X 11_2_0) AppleWebKit/537.36 (KHTML, like Gecko) Chrome/88.0.4324.192 Safari/537.36" etag="ux1TunCUlmYCpaPK3RsN" version="14.4.4" type="github">
  <diagram id="q1aIVAOFbqOrvlmknx2N" name="Page-1">
    <mxGraphModel dx="381" dy="502" grid="1" gridSize="10" guides="1" tooltips="1" connect="1" arrows="1" fold="1" page="1" pageScale="1" pageWidth="827" pageHeight="1169" math="0" shadow="0">
      <root>
        <mxCell id="0" />
        <mxCell id="1" parent="0" />
        <mxCell id="prMOYewgub1iAqoskops-27" value="MainViewController" style="swimlane;fontStyle=1;align=center;verticalAlign=top;childLayout=stackLayout;horizontal=1;startSize=26;horizontalStack=0;resizeParent=1;resizeParentMax=0;resizeLast=0;collapsible=1;marginBottom=0;" vertex="1" parent="1">
          <mxGeometry x="210" y="300" width="180" height="100" as="geometry" />
        </mxCell>
        <mxCell id="prMOYewgub1iAqoskops-28" value="+ todoTableView: UITableView&#xa;+ doingTableView: UITableView&#xa;+ doneTableView: UITableView" style="text;strokeColor=none;fillColor=none;align=left;verticalAlign=top;spacingLeft=4;spacingRight=4;overflow=hidden;rotatable=0;points=[[0,0.5],[1,0.5]];portConstraint=eastwest;" vertex="1" parent="prMOYewgub1iAqoskops-27">
          <mxGeometry y="26" width="180" height="54" as="geometry" />
        </mxCell>
        <mxCell id="prMOYewgub1iAqoskops-29" value="" style="line;strokeWidth=1;fillColor=none;align=left;verticalAlign=middle;spacingTop=-1;spacingLeft=3;spacingRight=3;rotatable=0;labelPosition=right;points=[];portConstraint=eastwest;" vertex="1" parent="prMOYewgub1iAqoskops-27">
          <mxGeometry y="80" width="180" height="20" as="geometry" />
        </mxCell>
        <mxCell id="prMOYewgub1iAqoskops-31" value="ThingTableViewCell" style="swimlane;fontStyle=1;align=center;verticalAlign=top;childLayout=stackLayout;horizontal=1;startSize=26;horizontalStack=0;resizeParent=1;resizeParentMax=0;resizeLast=0;collapsible=1;marginBottom=0;" vertex="1" parent="1">
          <mxGeometry x="210" y="424" width="160" height="138" as="geometry" />
        </mxCell>
        <mxCell id="prMOYewgub1iAqoskops-32" value="+ titleLabel: UILabel&#xa;+ bodyLabel: UILabel&#xa;+ dateLabel: UILabel&#xa;+ isDone: Bool&#xa;" style="text;strokeColor=none;fillColor=none;align=left;verticalAlign=top;spacingLeft=4;spacingRight=4;overflow=hidden;rotatable=0;points=[[0,0.5],[1,0.5]];portConstraint=eastwest;" vertex="1" parent="prMOYewgub1iAqoskops-31">
          <mxGeometry y="26" width="160" height="64" as="geometry" />
        </mxCell>
        <mxCell id="prMOYewgub1iAqoskops-33" value="" style="line;strokeWidth=1;fillColor=none;align=left;verticalAlign=middle;spacingTop=-1;spacingLeft=3;spacingRight=3;rotatable=0;labelPosition=right;points=[];portConstraint=eastwest;" vertex="1" parent="prMOYewgub1iAqoskops-31">
          <mxGeometry y="90" width="160" height="8" as="geometry" />
        </mxCell>
        <mxCell id="prMOYewgub1iAqoskops-34" value="+ configureCell()&#xa;+ changeDateColor()&#xa;&#xa;" style="text;strokeColor=none;fillColor=none;align=left;verticalAlign=top;spacingLeft=4;spacingRight=4;overflow=hidden;rotatable=0;points=[[0,0.5],[1,0.5]];portConstraint=eastwest;" vertex="1" parent="prMOYewgub1iAqoskops-31">
          <mxGeometry y="98" width="160" height="40" as="geometry" />
        </mxCell>
        <mxCell id="prMOYewgub1iAqoskops-36" value="DetailViewController" style="swimlane;fontStyle=1;align=center;verticalAlign=top;childLayout=stackLayout;horizontal=1;startSize=26;horizontalStack=0;resizeParent=1;resizeParentMax=0;resizeLast=0;collapsible=1;marginBottom=0;" vertex="1" parent="1">
          <mxGeometry x="414" y="300" width="200" height="170" as="geometry" />
        </mxCell>
        <mxCell id="prMOYewgub1iAqoskops-37" value="+ titleTextField: UITextField&#xa;+ bodyTextView: UITextView&#xa;+ datePicker: UIDatePicker&#xa;+ leftButton: UIBarButtonItem&#xa;+ doneButton: UIBarButtonItem&#xa;+ isNew: Bool" style="text;strokeColor=none;fillColor=none;align=left;verticalAlign=top;spacingLeft=4;spacingRight=4;overflow=hidden;rotatable=0;points=[[0,0.5],[1,0.5]];portConstraint=eastwest;" vertex="1" parent="prMOYewgub1iAqoskops-36">
          <mxGeometry y="26" width="200" height="94" as="geometry" />
        </mxCell>
        <mxCell id="prMOYewgub1iAqoskops-38" value="" style="line;strokeWidth=1;fillColor=none;align=left;verticalAlign=middle;spacingTop=-1;spacingLeft=3;spacingRight=3;rotatable=0;labelPosition=right;points=[];portConstraint=eastwest;" vertex="1" parent="prMOYewgub1iAqoskops-36">
          <mxGeometry y="120" width="200" height="8" as="geometry" />
        </mxCell>
        <mxCell id="prMOYewgub1iAqoskops-39" value="+ toggleEditMode():&#xa;+ touchUpDoneButton():" style="text;strokeColor=none;fillColor=none;align=left;verticalAlign=top;spacingLeft=4;spacingRight=4;overflow=hidden;rotatable=0;points=[[0,0.5],[1,0.5]];portConstraint=eastwest;" vertex="1" parent="prMOYewgub1iAqoskops-36">
          <mxGeometry y="128" width="200" height="42" as="geometry" />
        </mxCell>
        <mxCell id="prMOYewgub1iAqoskops-40" value="Thing" style="swimlane;fontStyle=1;align=center;verticalAlign=top;childLayout=stackLayout;horizontal=1;startSize=26;horizontalStack=0;resizeParent=1;resizeParentMax=0;resizeLast=0;collapsible=1;marginBottom=0;" vertex="1" parent="1">
          <mxGeometry x="210" y="170" width="160" height="108" as="geometry" />
        </mxCell>
        <mxCell id="prMOYewgub1iAqoskops-41" value="+ title: String&#xa;+ body: String&#xa;+ date: Int&#xa;+ dateString: String" style="text;strokeColor=none;fillColor=none;align=left;verticalAlign=top;spacingLeft=4;spacingRight=4;overflow=hidden;rotatable=0;points=[[0,0.5],[1,0.5]];portConstraint=eastwest;" vertex="1" parent="prMOYewgub1iAqoskops-40">
          <mxGeometry y="26" width="160" height="74" as="geometry" />
        </mxCell>
        <mxCell id="prMOYewgub1iAqoskops-42" value="" style="line;strokeWidth=1;fillColor=none;align=left;verticalAlign=middle;spacingTop=-1;spacingLeft=3;spacingRight=3;rotatable=0;labelPosition=right;points=[];portConstraint=eastwest;" vertex="1" parent="prMOYewgub1iAqoskops-40">
          <mxGeometry y="100" width="160" height="8" as="geometry" />
        </mxCell>
        <mxCell id="prMOYewgub1iAqoskops-44" value="Things" style="swimlane;fontStyle=1;align=center;verticalAlign=top;childLayout=stackLayout;horizontal=1;startSize=26;horizontalStack=0;resizeParent=1;resizeParentMax=0;resizeLast=0;collapsible=1;marginBottom=0;" vertex="1" parent="1">
          <mxGeometry x="400" y="170" width="160" height="98" as="geometry" />
        </mxCell>
        <mxCell id="prMOYewgub1iAqoskops-45" value="+ todoList: [Thing]&#xa;+ doingList: [Thing]&#xa;+ doneList: [Thing]&#xa;+ shared: Things" style="text;strokeColor=none;fillColor=none;align=left;verticalAlign=top;spacingLeft=4;spacingRight=4;overflow=hidden;rotatable=0;points=[[0,0.5],[1,0.5]];portConstraint=eastwest;" vertex="1" parent="prMOYewgub1iAqoskops-44">
          <mxGeometry y="26" width="160" height="64" as="geometry" />
        </mxCell>
        <mxCell id="prMOYewgub1iAqoskops-46" value="" style="line;strokeWidth=1;fillColor=none;align=left;verticalAlign=middle;spacingTop=-1;spacingLeft=3;spacingRight=3;rotatable=0;labelPosition=right;points=[];portConstraint=eastwest;" vertex="1" parent="prMOYewgub1iAqoskops-44">
          <mxGeometry y="90" width="160" height="8" as="geometry" />
        </mxCell>
      </root>
    </mxGraphModel>
  </diagram>
</mxfile>
